<svg version="1.0" xmlns="http://www.w3.org/2000/svg"
 width="980.000000pt" height="980.000000pt" viewBox="0 0 980.000000 980.000000"
 preserveAspectRatio="xMidYMid meet">

<g transform="translate(0.000000,980.000000) scale(0.100000,-0.100000)"
fill="#ed4159" stroke="none">
<path d="M4555 9789 c-1074 -91 -1988 -459 -2792 -1126 -798 -662 -1380 -1591
-1622 -2595 -220 -913 -182 -1836 114 -2723 255 -769 686 -1442 1285 -2010
1411 -1338 3506 -1708 5300 -935 1309 564 2320 1688 2739 3045 298 966 293
2014 -15 2960 -555 1707 -1997 2979 -3750 3309 -393 74 -905 105 -1259 75z
m230 -2134 c156 -40 319 -149 517 -346 114 -114 131 -128 178 -139 40 -10 54
-18 66 -42 9 -18 13 -40 9 -55 -8 -34 -89 -109 -170 -158 l-66 -40 8 -55 c4
-30 8 -109 7 -175 0 -143 -24 -243 -84 -350 -47 -87 -152 -192 -231 -235 l-59
-31 0 -63 0 -64 203 -4 c186 -4 208 -6 275 -30 41 -15 99 -42 129 -60 67 -40
165 -142 197 -206 52 -102 56 -135 56 -439 0 -270 -1 -284 -20 -303 -19 -19
-33 -20 -230 -20 l-210 0 0 175 c0 175 0 176 -26 202 -20 20 -32 24 -56 19
-54 -11 -57 -24 -58 -218 l0 -178 -555 0 -555 0 0 175 c0 173 0 176 -25 200
-13 14 -31 25 -40 25 -20 0 -57 -19 -67 -34 -4 -6 -8 -91 -8 -188 l0 -178
-210 0 c-211 0 -211 0 -235 25 l-25 24 0 263 c0 199 4 279 15 327 46 194 206
346 421 401 62 16 111 20 251 20 l173 0 0 64 0 65 -57 32 c-139 78 -249 231
-293 403 -24 94 -27 273 -6 379 12 62 11 72 -8 125 -15 43 -20 83 -20 162 -1
96 1 110 28 164 52 106 143 172 274 199 49 10 68 20 99 51 109 110 255 150
408 111z m-2037 -465 c83 -39 154 -92 257 -192 54 -53 92 -81 118 -88 42 -12
63 -47 52 -89 -7 -27 -74 -95 -115 -116 -26 -13 -26 -15 -22 -97 10 -189 -55
-333 -193 -428 -36 -24 -40 -33 -43 -73 l-3 -45 128 -4 c120 -3 132 -5 196
-35 89 -42 168 -122 196 -198 19 -49 21 -78 21 -247 0 -249 7 -238 -167 -238
l-123 0 0 128 c0 152 -8 172 -70 172 -62 0 -70 -20 -70 -172 l0 -128 -320 0
-320 0 0 128 c0 151 -8 172 -69 172 -59 0 -65 -15 -71 -164 l-5 -131 -110 -3
c-124 -3 -162 7 -172 47 -4 14 -8 105 -8 201 0 159 2 180 23 232 34 85 105
157 194 198 67 31 83 34 198 39 l125 6 1 43 c1 40 -2 45 -43 74 -142 97 -196
223 -193 447 2 69 -1 160 -5 202 -14 142 45 237 171 275 33 10 74 31 92 46 70
60 126 79 215 73 50 -3 88 -13 135 -35z m4139 6 c77 -36 163 -100 262 -196 50
-48 96 -83 112 -87 45 -9 64 -39 60 -94 -1 -20 -52 -72 -103 -106 l-38 -26 6
-81 c13 -176 -61 -341 -192 -423 -42 -27 -44 -30 -44 -74 l0 -47 128 -4 c118
-4 132 -6 194 -36 82 -40 153 -109 187 -182 25 -52 26 -65 29 -252 l3 -197
-25 -26 c-24 -24 -30 -25 -146 -25 l-120 0 0 123 c0 149 -8 171 -67 175 -64 5
-70 -7 -78 -163 l-7 -135 -314 0 -314 0 0 114 c0 154 -13 186 -75 186 -62 0
-75 -32 -75 -186 l0 -114 -119 0 c-175 0 -166 -13 -166 242 0 185 2 207 22
248 72 155 206 230 409 230 l104 0 -1 48 c0 46 -2 48 -59 89 -116 83 -173 208
-170 376 3 127 2 155 -6 260 -7 103 8 158 59 209 35 34 120 78 153 78 11 0 31
12 45 26 24 26 82 60 129 75 45 15 157 2 217 -25z m-3080 -2571 c159 -26 235
-54 643 -243 354 -164 843 -365 1107 -456 270 -93 429 -164 563 -251 25 -17
78 -48 119 -70 92 -50 116 -80 115 -144 -2 -155 -194 -261 -472 -261 -127 0
-167 10 -343 83 -341 142 -618 205 -854 194 -123 -6 -211 -24 -276 -57 -56
-29 -66 -80 -24 -120 28 -26 21 -27 160 17 77 25 291 22 432 -5 146 -29 309
-79 463 -143 213 -87 244 -97 344 -108 104 -12 231 -3 341 24 89 22 217 89
270 140 88 86 125 219 91 324 -9 27 -16 52 -16 54 0 3 143 106 318 230 959
679 905 644 1002 635 93 -9 174 -71 219 -167 22 -47 26 -70 25 -136 -1 -94
-25 -163 -84 -240 -85 -113 -399 -454 -615 -670 -711 -712 -1111 -917 -1790
-918 -280 -1 -337 9 -801 133 -225 61 -479 128 -564 151 -85 22 -243 65 -350
94 -107 29 -212 56 -232 60 -21 4 -38 9 -38 11 0 3 -124 400 -439 1407 -45
142 -81 262 -81 267 0 21 212 117 320 145 142 37 298 44 447 20z m-1030 -71
c68 -23 106 -55 136 -116 15 -29 70 -192 123 -363 52 -170 177 -569 276 -885
157 -502 179 -581 174 -622 -8 -77 -57 -152 -119 -184 -77 -41 -740 -244 -817
-251 -47 -4 -63 0 -109 24 -99 51 -90 28 -342 834 -372 1190 -342 1087 -335
1142 7 60 45 127 91 163 20 15 84 41 143 59 59 19 229 71 377 118 356 112 328
106 402 81z"/>
<path d="M4390 6910 c-25 -10 -87 -28 -137 -40 -74 -18 -93 -27 -98 -44 -3
-11 -9 -71 -12 -131 -7 -134 17 -244 71 -334 134 -221 438 -305 682 -190 129
61 212 153 261 290 24 65 27 89 27 201 0 84 -4 132 -11 139 -9 9 -27 9 -75 -1
-180 -35 -385 -2 -575 94 -40 20 -76 36 -80 35 -5 0 -28 -8 -53 -19z"/>
<path d="M4520 5907 c0 -65 3 -73 66 -188 37 -65 70 -121 74 -124 4 -3 40 53
79 123 67 122 71 132 71 193 l0 64 -145 0 -145 0 0 -68z"/>
<path d="M2378 6683 c-75 -23 -77 -25 -84 -59 -10 -54 3 -152 27 -202 27 -56
82 -109 139 -136 66 -31 198 -30 262 2 103 51 160 144 162 262 l1 75 -91 -3
c-103 -4 -197 15 -284 58 l-55 27 -77 -24z"/>
<path d="M2530 6055 c0 -41 7 -67 28 -105 15 -27 29 -50 32 -50 3 0 18 25 33
55 18 38 27 71 27 105 l0 50 -60 0 -60 0 0 -55z"/>
<path d="M6535 6687 c-95 -29 -90 -23 -90 -128 0 -85 3 -99 30 -148 36 -64 82
-105 153 -131 138 -52 295 1 366 123 27 46 48 152 40 196 l-6 27 -86 -4 c-98
-4 -192 13 -270 51 -71 34 -72 34 -137 14z"/>
<path d="M6670 6061 c0 -43 31 -125 60 -154 4 -5 21 17 39 47 23 42 31 68 31
106 l0 50 -65 0 -65 0 0 -49z"/>
</g>
</svg>
