<svg xmlns="http://www.w3.org/2000/svg" xmlns:xlink="http://www.w3.org/1999/xlink" width="353px" height="353px" viewBox="0 0 353 353"><title>Group 8</title><desc>Created with Sketch.</desc><g id="Page-1" stroke="none" stroke-width="1" fill="none" fill-rule="evenodd"><g id="20182-Icons" transform="translate(-120.000000, -936.000000)"><g id="Group-8" transform="translate(120.000000, 936.000000)"><circle id="Oval" fill="#233142" cx="176.5" cy="176.5" r="176.5"></circle><g id="devops" transform="translate(107.000000, 109.000000)" stroke-width="4"><path d="M139,79.925 L139,59.0778958 L122.991833,56.8104583 C121.619208,51.013 119.334396,45.5862083 116.293771,40.6603958 L126.015083,27.7305 L111.272396,12.9849167 L98.3396042,22.709125 C93.4137917,19.6656042 87.987,17.3807917 82.1924375,16.0110625 L79.925,0 L59.075,0 L56.8075625,16.0110625 C51.013,17.3807917 45.5862083,19.6656042 40.6603958,22.709125 L27.7276042,12.9849167 L12.9849167,27.7305 L22.7062292,40.6603958 C19.6656042,45.5891042 17.3807917,51.013 16.0081667,56.8104583 L0,59.0778958 L0,79.925 L16.0081667,82.1924375 C17.3807917,87.9898958 19.6656042,93.4137917 22.7062292,98.3396042 L12.9849167,111.272396 L27.7276042,126.015083 L40.6603958,116.293771 C45.5862083,119.334396 51.013,121.619208 56.8075625,122.991833 L59.075,139 L79.925,139 L82.1924375,122.991833 C87.987,121.619208 93.4137917,119.334396 98.3396042,116.293771 L111.272396,126.015083 L126.015083,111.272396 L116.290875,98.3396042 C119.334396,93.4166875 121.619208,87.9898958 122.991833,82.1924375 L139,79.925 Z" id="Stroke-1" stroke="#FFFFFF" stroke-linecap="round" stroke-linejoin="round"></path><path d="M84,37.4002222 C79.4333915,35.222 74.3112275,34 68.904014,34 C49.6195462,34 34,49.522 34,68.6666667 C34,74.9904444 35.7306574,80.8982222 38.7062245,86" id="Stroke-3" stroke="#ed4159" stroke-linecap="round"></path><path d="M100,86 C103.16131,80.94511 105,75.0949401 105,68.8356875 C105,63.5233327 103.695921,58.4913284 101.368974,54" id="Stroke-5" stroke="#ed4159" stroke-linecap="round"></path><path d="M74,65 L95,44" id="Stroke-7" stroke="#ed4159" stroke-linecap="round" stroke-linejoin="round"></path><path d="M76,71 C76,73.76 73.7625,76 71,76 C68.2375,76 66,73.76 66,71 C66,68.24 68.2375,66 71,66 C73.7625,66 76,68.24 76,71 Z" id="Stroke-9" stroke="#ed4159"></path></g></g></g></g></svg>