<?xml version="1.0" standalone="no"?>
<!DOCTYPE svg PUBLIC "-//W3C//DTD SVG 20010904//EN"
 "http://www.w3.org/TR/2001/REC-SVG-20010904/DTD/svg10.dtd">
<svg version="1.0" xmlns="http://www.w3.org/2000/svg"
 width="225.000000pt" height="225.000000pt" viewBox="0 0 225.000000 225.000000"
 preserveAspectRatio="xMidYMid meet">

<g transform="translate(0.000000,225.000000) scale(0.100000,-0.100000)"
fill="#000000" stroke="none">
<path d="M988 2240 c-473 -60 -853 -405 -960 -873 -30 -130 -30 -354 0 -484
49 -213 138 -376 292 -536 166 -173 355 -276 605 -328 91 -19 323 -16 425 5
225 47 420 156 580 323 159 164 249 333 296 553 26 123 24 343 -4 467 -84 369
-337 664 -687 803 -156 62 -383 91 -547 70z m243 -547 c11 -23 19 -29 30 -22
32 20 66 9 104 -32 35 -40 38 -49 20 -91 -5 -13 0 -20 20 -28 15 -6 32 -23 38
-40 8 -22 18 -30 42 -32 40 -4 39 -22 -2 -26 -20 -2 -33 -9 -33 -17 0 -20 -40
-55 -62 -55 -17 0 -18 -2 -3 -30 20 -39 13 -61 -32 -100 -35 -31 -52 -34 -94
-16 -12 5 -20 -1 -29 -24 -14 -34 -37 -43 -96 -38 -31 2 -43 9 -59 35 -13 21
-25 30 -35 26 -46 -18 -60 -15 -95 20 -36 36 -45 76 -25 107 7 11 4 16 -13 20
-12 3 -31 20 -42 38 l-20 31 -103 1 -102 0 2 -186 3 -187 41 -12 c123 -36 188
-176 135 -290 -22 -48 -74 -99 -116 -115 -38 -14 -121 -15 -159 0 -116 44
-171 190 -113 301 27 50 88 98 138 108 l34 7 3 202 2 202 119 0 119 0 11 30
c7 20 21 34 40 41 27 10 28 12 16 36 -16 31 -11 49 28 91 32 33 63 40 97 22
15 -8 20 -6 26 13 13 42 24 48 88 45 57 -3 62 -5 77 -35z m397 -255 c-5 -15
-42 -22 -64 -14 -25 10 -5 26 32 26 24 0 34 -4 32 -12z m52 -39 c0 -24 -4 -38
-10 -34 -5 3 -10 22 -10 41 0 19 5 34 10 34 6 0 10 -18 10 -41z m0 -109 c0
-22 -4 -40 -10 -40 -5 0 -10 18 -10 40 0 22 5 40 10 40 6 0 10 -18 10 -40z m0
-110 c0 -22 -4 -40 -10 -40 -11 0 -14 63 -3 73 11 12 13 8 13 -33z m0 -105 c0
-20 7 -26 38 -34 174 -48 227 -261 93 -374 -68 -57 -187 -63 -260 -13 -89 62
-116 187 -62 282 32 56 65 81 126 99 32 10 41 17 43 39 4 33 22 34 22 1z"/>
<path d="M1100 1675 c-6 -14 -10 -31 -10 -36 0 -19 -30 -20 -60 -3 l-30 18
-32 -31 -32 -32 17 -37 c20 -41 18 -45 -26 -60 -29 -10 -32 -15 -35 -57 l-3
-46 40 -11 c44 -12 50 -25 26 -56 -22 -29 -18 -50 16 -78 l31 -26 34 21 c40
24 50 20 58 -26 7 -34 8 -35 56 -35 49 0 49 0 60 41 9 32 15 39 28 34 71 -30
70 -30 97 -5 29 27 31 48 10 76 -23 31 -18 43 26 54 l40 11 -3 46 c-3 42 -6
47 -35 57 -44 15 -48 22 -29 50 22 34 20 47 -9 79 -30 31 -37 33 -70 11 -32
-21 -45 -15 -59 26 -10 32 -15 35 -54 38 -38 3 -43 0 -52 -23z m95 -139 c72
-30 85 -129 24 -180 -51 -43 -124 -31 -159 26 -24 40 -25 71 -3 109 16 27 64
58 91 59 7 0 28 -7 47 -14z"/>
<path d="M1102 1494 c-33 -23 -31 -86 4 -113 31 -24 43 -26 78 -10 31 14 49
61 36 94 -17 44 -76 59 -118 29z"/>
<path d="M539 1001 c-81 -44 -121 -130 -100 -211 33 -124 157 -183 269 -129
126 62 138 248 21 326 -54 36 -138 42 -190 14z m191 -104 c0 -7 -31 -44 -70
-82 l-70 -69 -40 39 c-22 21 -40 43 -40 47 0 16 25 7 52 -19 l29 -27 62 62
c63 63 77 72 77 49z"/>
<path d="M1595 1006 c-39 -18 -80 -62 -99 -108 -64 -151 98 -307 251 -243 48
20 71 41 94 87 36 70 18 181 -37 229 -55 48 -146 63 -209 35z m108 -128 c43
42 57 28 15 -15 l-32 -33 32 -33 c42 -43 28 -57 -15 -15 l-33 32 -33 -32 c-43
-42 -57 -28 -15 15 l32 33 -32 33 c-42 43 -28 57 15 15 l33 -32 33 32z"/>
</g>
</svg>
