<?xml version="1.0" encoding="UTF-8"?>
<svg xmlns="http://www.w3.org/2000/svg" xmlns:xlink="http://www.w3.org/1999/xlink" width="800px" height="800px" viewBox="0 0 3872.97 3872.97">
<defs>
<clipPath id="clip-0">
<path clip-rule="nonzero" d="M 0 0 L 3872.96875 0 L 3872.96875 3872.96875 L 0 3872.96875 Z M 0 0 "/>
</clipPath>
<clipPath id="clip-1">
<path clip-rule="nonzero" d="M 702 697 L 3171 697 L 3171 3176 L 702 3176 Z M 702 697 "/>
</clipPath>
<clipPath id="clip-2">
<path clip-rule="evenodd" d="M 786.914062 3091.609375 L 786.914062 2859.988281 C 786.914062 2732.289062 890.816406 2628.390625 1018.53125 2628.390625 L 1105.53125 2628.390625 L 1037.371094 2710.089844 C 1023.710938 2726.46875 1024.460938 2750.46875 1039.109375 2765.96875 L 1346.980469 3091.609375 L 992.820312 3091.609375 L 992.824219 2899.101562 C 992.824219 2875.851562 973.980469 2857.011719 950.730469 2857.011719 C 927.484375 2857.011719 908.644531 2875.851562 908.644531 2899.101562 L 908.644531 3091.609375 Z M 1542.390625 3091.609375 L 1850.28125 2765.960938 C 1864.929688 2750.460938 1865.671875 2726.460938 1852.011719 2710.078125 L 1783.871094 2628.390625 L 1870.878906 2628.390625 C 1998.578125 2628.390625 2102.480469 2732.289062 2102.480469 2860 L 2102.480469 3091.609375 L 1980.75 3091.609375 L 1980.761719 2899.101562 C 1980.761719 2875.851562 1961.910156 2857.011719 1938.660156 2857.011719 C 1915.421875 2857.011719 1896.570312 2875.851562 1896.570312 2899.101562 L 1896.570312 3091.609375 Z M 1587.738281 2921.128906 L 1704.511719 2664.679688 L 1763.421875 2735.300781 Z M 1184.890625 2664.671875 L 1301.691406 2921.191406 L 1125.960938 2735.308594 Z M 1444.699219 2490.449219 C 1385.160156 2490.449219 1322.828125 2478.820312 1267.601562 2454.441406 L 1243.75 2562.710938 L 1444.699219 2658.550781 L 1645.648438 2562.710938 L 1621.808594 2454.441406 C 1566.570312 2478.820312 1504.238281 2490.449219 1444.699219 2490.449219 Z M 1617.429688 1666.210938 C 1662.449219 1666.210938 1703.101562 1683.800781 1734.960938 1717.078125 C 1778.191406 1762.230469 1801.449219 1831.46875 1813.828125 1897.738281 C 1816.148438 1889.730469 1818.378906 1881.78125 1820.480469 1874.03125 C 1872.300781 1675.878906 1842.460938 1608.539062 1827.21875 1588.808594 C 1815.21875 1573.269531 1800.820312 1570.949219 1793.308594 1570.949219 C 1792.941406 1570.949219 1792.628906 1570.949219 1792.359375 1570.960938 C 1775.101562 1574.21875 1759.800781 1565.988281 1750.71875 1550.859375 C 1675.128906 1424.871094 1479.589844 1412.988281 1477.628906 1412.878906 C 1476.390625 1412.820312 1475.148438 1412.699219 1473.921875 1412.519531 C 1447.371094 1408.730469 1421.488281 1406.800781 1396.988281 1406.800781 C 1135.511719 1406.800781 1073.410156 1624.628906 1070.898438 1633.910156 C 1070.738281 1634.488281 1070.519531 1635.238281 1070.328125 1635.808594 C 1042.660156 1722.78125 1053.449219 1815.960938 1074 1892.71875 C 1079.039062 1881.910156 1084.960938 1871.589844 1091.730469 1861.761719 C 1148.671875 1779.148438 1245.5 1765.621094 1249.589844 1765.078125 C 1251.398438 1764.851562 1253.21875 1764.730469 1255.050781 1764.730469 C 1401.871094 1764.730469 1536.808594 1683.699219 1538.160156 1682.878906 C 1540.738281 1681.320312 1543.480469 1680.03125 1546.339844 1679.039062 C 1571.089844 1670.53125 1595 1666.210938 1617.429688 1666.210938 Z M 1742.960938 2075.109375 C 1745.140625 2010.429688 1736.96875 1840.820312 1674.121094 1775.261719 C 1657.859375 1758.300781 1639.851562 1750.398438 1617.429688 1750.398438 C 1605.398438 1750.398438 1592.011719 1752.738281 1577.570312 1757.371094 C 1551.160156 1772.648438 1413.441406 1847.769531 1258.578125 1848.898438 C 1247.550781 1850.988281 1192.269531 1863.609375 1160.589844 1910.210938 C 1134.71875 1948.269531 1129.429688 2001.371094 1144.839844 2068.070312 C 1145.449219 2070.050781 1145.921875 2072.101562 1146.238281 2074.191406 L 1184.71875 2247.589844 C 1195.03125 2294.070312 1223.230469 2329.660156 1260.820312 2355.238281 C 1261.550781 2355.699219 1262.269531 2356.179688 1262.96875 2356.679688 C 1313.78125 2390.441406 1381.160156 2406.28125 1444.699219 2406.28125 C 1508.300781 2406.28125 1575.738281 2390.410156 1626.578125 2356.578125 C 1627.179688 2356.148438 1627.800781 2355.738281 1628.429688 2355.351562 C 1666.089844 2329.75 1694.351562 2294.128906 1704.679688 2247.589844 Z M 1064.808594 2095.800781 C 1042.050781 2054.878906 922.496094 1824.371094 989.882812 1611.070312 C 992.800781 1600.699219 1013.199219 1533.511719 1069.320312 1466.78125 C 1124.640625 1401.011719 1226.398438 1322.621094 1397.011719 1322.621094 C 1424.949219 1322.621094 1454.261719 1324.75 1484.148438 1328.941406 C 1508.050781 1330.550781 1709.769531 1348.121094 1810.050781 1487.980469 C 1832.691406 1491.179688 1866.691406 1502.179688 1893.851562 1537.359375 C 1944.96875 1603.558594 1947.578125 1720.761719 1901.828125 1895.671875 C 1888.640625 1944.421875 1856.570312 2054.128906 1823.789062 2099.421875 L 1786.859375 2265.828125 C 1773.539062 2325.859375 1741.070312 2373.058594 1697.859375 2408.378906 L 1727.78125 2544.210938 L 1870.878906 2544.210938 C 2045 2544.210938 2186.660156 2685.871094 2186.660156 2860 L 2186.660156 3133.699219 C 2186.660156 3156.949219 2167.808594 3175.789062 2144.570312 3175.789062 L 744.828125 3175.789062 C 721.578125 3175.789062 702.738281 3156.949219 702.738281 3133.699219 L 702.738281 2860 C 702.738281 2685.871094 844.402344 2544.210938 1018.53125 2544.210938 L 1161.621094 2544.210938 L 1191.539062 2408.378906 C 1148.328125 2373.058594 1115.859375 2325.871094 1102.539062 2265.828125 Z M 2711.421875 2592.671875 C 2767.03125 2592.671875 2812.269531 2637.898438 2812.269531 2693.519531 C 2812.269531 2749.128906 2767.03125 2794.371094 2711.421875 2794.371094 C 2655.808594 2794.371094 2610.558594 2749.128906 2610.558594 2693.519531 C 2610.558594 2637.898438 2655.800781 2592.671875 2711.421875 2592.671875 Z M 2711.421875 2878.550781 C 2609.390625 2878.550781 2526.378906 2795.550781 2526.378906 2693.519531 C 2526.378906 2591.488281 2609.390625 2508.488281 2711.421875 2508.488281 C 2813.449219 2508.488281 2896.449219 2591.488281 2896.449219 2693.519531 C 2896.449219 2795.550781 2813.449219 2878.550781 2711.421875 2878.550781 Z M 2675.171875 3091.609375 L 2655.359375 2988.589844 C 2652.460938 2973.488281 2641.539062 2961.171875 2626.898438 2956.460938 C 2589.390625 2944.421875 2555.449219 2924.789062 2526.058594 2898.148438 C 2514.660156 2887.808594 2498.539062 2884.53125 2484.011719 2889.570312 L 2384.789062 2923.949219 L 2348.539062 2861.171875 L 2427.859375 2792.488281 C 2439.480469 2782.441406 2444.691406 2766.851562 2441.46875 2751.828125 C 2437.371094 2732.769531 2435.289062 2713.140625 2435.289062 2693.519531 C 2435.289062 2673.910156 2437.371094 2654.289062 2441.46875 2635.199219 C 2444.699219 2620.179688 2439.480469 2604.589844 2427.859375 2594.539062 L 2348.539062 2525.859375 L 2384.789062 2463.078125 L 2484.011719 2497.46875 C 2498.53125 2502.5 2514.648438 2499.210938 2526.058594 2488.890625 C 2555.449219 2462.238281 2589.378906 2442.621094 2626.890625 2430.570312 C 2641.539062 2425.871094 2652.460938 2413.550781 2655.359375 2398.449219 L 2675.171875 2295.429688 L 2747.671875 2295.429688 L 2767.480469 2398.429688 C 2770.378906 2413.539062 2781.300781 2425.859375 2795.941406 2430.558594 C 2833.480469 2442.609375 2867.421875 2462.238281 2896.800781 2488.871094 C 2908.191406 2499.210938 2924.320312 2502.5 2938.851562 2497.460938 L 3038.050781 2463.078125 L 3074.300781 2525.871094 L 2994.96875 2594.558594 C 2983.351562 2604.609375 2978.140625 2620.191406 2981.359375 2635.210938 C 2985.46875 2654.308594 2987.550781 2673.929688 2987.550781 2693.519531 C 2987.550781 2713.148438 2985.46875 2732.769531 2981.371094 2751.828125 C 2978.140625 2766.851562 2983.351562 2782.441406 2994.96875 2792.488281 L 3074.300781 2861.171875 L 3038.050781 2923.949219 L 2938.828125 2889.570312 C 2924.300781 2884.53125 2908.179688 2887.820312 2896.78125 2898.148438 C 2867.390625 2924.789062 2833.460938 2944.410156 2795.941406 2956.460938 C 2781.289062 2961.160156 2770.378906 2973.480469 2767.480469 2988.589844 L 2747.660156 3091.609375 Z M 2782.441406 3175.789062 C 2802.621094 3175.789062 2819.960938 3161.46875 2823.769531 3141.640625 L 2845.628906 3027.980469 C 2877.378906 3015.261719 2906.921875 2998.179688 2933.890625 2976.949219 L 3043.328125 3014.878906 C 3062.410156 3021.46875 3083.480469 3013.621094 3093.570312 2996.148438 L 3164.589844 2873.140625 C 3174.691406 2855.671875 3170.949219 2833.488281 3155.679688 2820.28125 L 3068.128906 2744.480469 C 3070.519531 2727.628906 3071.730469 2710.570312 3071.730469 2693.511719 C 3071.730469 2676.46875 3070.519531 2659.421875 3068.128906 2642.558594 L 3155.679688 2566.75 C 3170.941406 2553.53125 3174.679688 2531.359375 3164.589844 2513.878906 L 3093.570312 2390.878906 C 3083.480469 2373.398438 3062.410156 2365.550781 3043.328125 2372.148438 L 2933.921875 2410.070312 C 2906.949219 2388.828125 2877.390625 2371.75 2845.621094 2359.019531 L 2823.769531 2245.378906 C 2819.960938 2225.558594 2802.621094 2211.238281 2782.441406 2211.238281 L 2640.410156 2211.238281 C 2620.21875 2211.238281 2602.878906 2225.558594 2599.078125 2245.378906 L 2577.210938 2359.039062 C 2545.460938 2371.75 2515.910156 2388.839844 2488.941406 2410.078125 L 2379.5 2372.148438 C 2360.410156 2365.550781 2339.351562 2373.410156 2329.269531 2390.871094 L 2258.261719 2513.878906 C 2248.160156 2531.359375 2251.898438 2553.539062 2267.148438 2566.75 L 2354.710938 2642.550781 C 2352.308594 2659.410156 2351.101562 2676.460938 2351.101562 2693.511719 C 2351.101562 2710.570312 2352.308594 2727.628906 2354.710938 2744.480469 L 2267.148438 2820.269531 C 2251.898438 2833.488281 2248.160156 2855.671875 2258.261719 2873.140625 L 2329.269531 2996.148438 C 2339.359375 3013.621094 2360.441406 3021.488281 2379.5 3014.871094 L 2488.941406 2976.949219 C 2515.910156 2998.191406 2545.460938 3015.269531 2577.210938 3027.988281 L 2599.078125 3141.648438 C 2602.890625 3161.460938 2620.230469 3175.789062 2640.410156 3175.789062 Z M 2316.128906 2040.261719 C 2323.128906 2040.261719 2330.109375 2042 2336.441406 2045.480469 L 2427.640625 2095.691406 L 2408.058594 1993.441406 C 2405.359375 1979.28125 2410.089844 1964.699219 2420.609375 1954.828125 L 2496.539062 1883.621094 L 2393.25 1870.628906 C 2378.929688 1868.828125 2366.539062 1859.820312 2360.410156 1846.761719 L 2316.128906 1752.539062 L 2271.871094 1846.761719 C 2265.738281 1859.820312 2253.339844 1868.828125 2239.03125 1870.628906 L 2135.730469 1883.621094 L 2211.660156 1954.828125 C 2222.191406 1964.699219 2226.921875 1979.28125 2224.210938 1993.441406 L 2204.640625 2095.691406 L 2295.839844 2045.480469 C 2302.148438 2042 2309.148438 2040.261719 2316.128906 2040.261719 Z M 2485.808594 2217.859375 C 2478.839844 2217.859375 2471.871094 2216.140625 2465.511719 2212.640625 L 2316.128906 2130.398438 L 2166.761719 2212.640625 C 2152.46875 2220.511719 2134.921875 2219.410156 2121.71875 2209.820312 C 2108.53125 2200.230469 2102.058594 2183.878906 2105.121094 2167.859375 L 2137.179688 2000.378906 L 2012.800781 1883.730469 C 2000.898438 1872.570312 1996.519531 1855.539062 2001.558594 1840.019531 C 2006.609375 1824.511719 2020.160156 1813.300781 2036.339844 1811.269531 L 2205.53125 1790 L 2278.050781 1635.671875 C 2284.980469 1620.898438 2299.820312 1611.46875 2316.140625 1611.46875 C 2332.460938 1611.46875 2347.300781 1620.898438 2354.238281 1635.671875 L 2426.75 1790 L 2595.941406 1811.269531 C 2612.121094 1813.300781 2625.671875 1824.511719 2630.71875 1840.019531 C 2635.761719 1855.539062 2631.378906 1872.558594 2619.488281 1883.730469 L 2495.109375 2000.378906 L 2527.160156 2167.859375 C 2530.230469 2183.878906 2523.761719 2200.230469 2510.558594 2209.820312 C 2503.21875 2215.148438 2494.53125 2217.859375 2485.808594 2217.859375 Z M 1942.429688 1082.359375 L 1942.46875 1082.488281 L 1942.75 1083.320312 L 1942.808594 1083.46875 L 1943.078125 1084.238281 L 1943.179688 1084.480469 L 1943.441406 1085.171875 L 1943.578125 1085.5 L 1943.820312 1086.070312 L 1944.011719 1086.488281 L 1944.210938 1086.960938 L 1944.488281 1087.550781 L 1944.628906 1087.828125 L 1944.921875 1088.421875 L 1945.101562 1088.769531 L 1945.480469 1089.5 L 1945.5 1089.539062 L 1945.988281 1090.410156 L 1946 1090.421875 C 1946.148438 1090.691406 1946.308594 1090.960938 1946.46875 1091.230469 L 1946.539062 1091.339844 L 1947.039062 1092.140625 L 1947.050781 1092.148438 C 1947.21875 1092.421875 1947.398438 1092.691406 1947.578125 1092.960938 L 1947.628906 1093.039062 L 1948.171875 1093.808594 L 1948.199219 1093.851562 L 1948.730469 1094.589844 L 1948.859375 1094.761719 L 1949.359375 1095.398438 L 1949.480469 1095.550781 L 1950.011719 1096.210938 L 1950.121094 1096.351562 L 1950.621094 1096.929688 L 1950.921875 1097.28125 L 1951.339844 1097.75 L 1951.351562 1097.761719 L 1951.988281 1098.441406 L 1952.039062 1098.5 C 1952.269531 1098.738281 1952.5 1098.980469 1952.738281 1099.21875 L 2021.878906 1168.359375 C 2030.101562 1176.578125 2040.871094 1180.691406 2051.640625 1180.691406 C 2062.421875 1180.691406 2073.191406 1176.578125 2081.410156 1168.359375 C 2097.851562 1151.921875 2097.851562 1125.28125 2081.410156 1108.839844 L 2024.601562 1052.019531 L 2024.601562 928.019531 C 2024.601562 904.78125 2005.761719 885.929688 1982.511719 885.929688 C 1959.261719 885.929688 1940.421875 904.78125 1940.421875 928.019531 L 1940.410156 1069.460938 L 1940.421875 1069.460938 C 1940.421875 1069.800781 1940.421875 1070.128906 1940.429688 1070.46875 L 1940.429688 1070.488281 C 1940.441406 1071.109375 1940.46875 1071.730469 1940.511719 1072.351562 L 1940.53125 1072.511719 C 1940.769531 1075.929688 1941.421875 1079.21875 1942.429688 1082.359375 Z M 1940.421875 784.441406 C 1815.179688 802.859375 1715.910156 902.140625 1697.488281 1027.371094 L 1729.539062 1027.371094 C 1752.78125 1027.371094 1771.628906 1046.210938 1771.628906 1069.460938 C 1771.628906 1092.710938 1752.78125 1111.550781 1729.539062 1111.550781 L 1697.488281 1111.550781 C 1715.910156 1236.78125 1815.179688 1336.058594 1940.410156 1354.46875 L 1940.410156 1322.421875 C 1940.410156 1299.171875 1959.261719 1280.328125 1982.5 1280.328125 C 2005.761719 1280.328125 2024.601562 1299.171875 2024.601562 1322.421875 L 2024.601562 1354.46875 C 2149.820312 1336.050781 2249.101562 1236.78125 2267.511719 1111.550781 L 2235.460938 1111.550781 C 2212.21875 1111.550781 2193.371094 1092.710938 2193.371094 1069.460938 C 2193.371094 1046.210938 2212.21875 1027.371094 2235.460938 1027.371094 L 2267.511719 1027.371094 C 2249.101562 902.140625 2149.828125 802.859375 2024.601562 784.441406 L 2024.601562 816.488281 C 2024.601562 839.738281 2005.761719 858.578125 1982.5 858.578125 C 1959.261719 858.578125 1940.410156 839.738281 1940.410156 816.488281 Z M 1982.5 1441.730469 C 1982.140625 1441.730469 1981.78125 1441.71875 1981.421875 1441.71875 C 1777 1441.128906 1610.828125 1274.949219 1610.238281 1070.550781 C 1610.238281 1070.191406 1610.230469 1069.820312 1610.230469 1069.460938 C 1610.230469 1069.089844 1610.238281 1068.730469 1610.238281 1068.371094 C 1610.828125 863.960938 1777.011719 697.789062 1981.421875 697.199219 C 1981.78125 697.191406 1982.140625 697.179688 1982.5 697.179688 L 1982.511719 697.179688 C 1982.871094 697.179688 1983.230469 697.191406 1983.601562 697.199219 C 2188.371094 697.789062 2354.78125 864.550781 2354.78125 1069.460938 C 2354.769531 1274.359375 2188.359375 1441.121094 1983.601562 1441.71875 C 1983.230469 1441.71875 1982.871094 1441.730469 1982.5 1441.730469 Z M 2977.378906 1423.589844 C 3000.628906 1423.589844 3019.46875 1404.75 3019.46875 1381.5 C 3019.46875 1358.25 3000.628906 1339.410156 2977.378906 1339.410156 L 2607.238281 1339.410156 C 2583.988281 1339.410156 2565.140625 1358.25 2565.140625 1381.5 C 2565.140625 1404.75 2583.988281 1423.589844 2607.238281 1423.589844 Z M 2977.378906 1271.621094 C 3000.628906 1271.621094 3019.46875 1252.769531 3019.46875 1229.53125 C 3019.46875 1206.28125 3000.628906 1187.441406 2977.378906 1187.441406 L 2607.238281 1187.441406 C 2583.988281 1187.441406 2565.140625 1206.28125 2565.140625 1229.53125 C 2565.140625 1252.769531 2583.988281 1271.621094 2607.238281 1271.621094 Z M 2977.378906 1119.628906 C 3000.628906 1119.628906 3019.46875 1100.789062 3019.46875 1077.550781 C 3019.46875 1054.300781 3000.628906 1035.460938 2977.378906 1035.460938 L 2607.238281 1035.449219 C 2583.988281 1035.449219 2565.140625 1054.289062 2565.140625 1077.539062 C 2565.140625 1100.789062 2583.988281 1119.628906 2607.238281 1119.628906 Z M 2977.378906 967.660156 C 3000.628906 967.660156 3019.46875 948.820312 3019.46875 925.570312 C 3019.46875 902.320312 3000.628906 883.480469 2977.378906 883.480469 L 2607.238281 883.480469 C 2583.988281 883.480469 2565.140625 902.320312 2565.140625 925.570312 C 2565.140625 948.820312 2583.988281 967.660156 2607.238281 967.660156 Z M 2498.578125 1525.710938 L 3086.039062 1525.710938 L 3086.039062 781.359375 L 2498.578125 781.359375 Z M 3128.140625 1609.890625 L 2456.488281 1609.890625 C 2433.238281 1609.890625 2414.390625 1591.050781 2414.390625 1567.800781 L 2414.390625 739.269531 C 2414.390625 716.019531 2433.238281 697.179688 2456.488281 697.179688 L 3128.128906 697.179688 C 3151.378906 697.179688 3170.21875 716.019531 3170.21875 739.269531 L 3170.21875 1567.800781 C 3170.230469 1591.039062 3151.378906 1609.890625 3128.140625 1609.890625 Z M 1444.699219 2747.269531 C 1438.5 2747.269531 1432.308594 2745.898438 1426.578125 2743.171875 L 1281.648438 2674.039062 L 1444.699219 3032.140625 L 1607.761719 2674.039062 L 1462.820312 2743.171875 C 1457.089844 2745.910156 1450.890625 2747.269531 1444.699219 2747.269531 "/>
</clipPath>
<linearGradient id="linear-pattern-0" gradientUnits="userSpaceOnUse" x1="0" y1="0" x2="1.000001" y2="0" gradientTransform="matrix(2478.56, 0, 0, 2478.56, 697.207, 1936.48)">
<stop offset="0.398437" stop-color="rgb(75.013733%, 82.225037%, 91.848755%)" stop-opacity="1"/>
<stop offset="0.40625" stop-color="rgb(74.627686%, 81.958008%, 91.726685%)" stop-opacity="1"/>
<stop offset="0.414063" stop-color="rgb(74.241638%, 81.690979%, 91.604614%)" stop-opacity="1"/>
<stop offset="0.421875" stop-color="rgb(73.855591%, 81.425476%, 91.482544%)" stop-opacity="1"/>
<stop offset="0.429688" stop-color="rgb(73.469543%, 81.158447%, 91.358948%)" stop-opacity="1"/>
<stop offset="0.4375" stop-color="rgb(73.083496%, 80.891418%, 91.236877%)" stop-opacity="1"/>
<stop offset="0.445312" stop-color="rgb(72.697449%, 80.625916%, 91.114807%)" stop-opacity="1"/>
<stop offset="0.453125" stop-color="rgb(72.311401%, 80.358887%, 90.991211%)" stop-opacity="1"/>
<stop offset="0.460937" stop-color="rgb(71.925354%, 80.091858%, 90.869141%)" stop-opacity="1"/>
<stop offset="0.46875" stop-color="rgb(71.539307%, 79.826355%, 90.74707%)" stop-opacity="1"/>
<stop offset="0.476563" stop-color="rgb(71.153259%, 79.559326%, 90.623474%)" stop-opacity="1"/>
<stop offset="0.484375" stop-color="rgb(70.767212%, 79.292297%, 90.501404%)" stop-opacity="1"/>
<stop offset="0.492188" stop-color="rgb(70.381165%, 79.025269%, 90.379333%)" stop-opacity="1"/>
<stop offset="0.5" stop-color="rgb(69.995117%, 78.759766%, 90.255737%)" stop-opacity="1"/>
<stop offset="0.507812" stop-color="rgb(69.60907%, 78.492737%, 90.133667%)" stop-opacity="1"/>
<stop offset="0.515625" stop-color="rgb(69.223022%, 78.225708%, 90.011597%)" stop-opacity="1"/>
<stop offset="0.523438" stop-color="rgb(68.836975%, 77.960205%, 89.888%)" stop-opacity="1"/>
<stop offset="0.53125" stop-color="rgb(68.450928%, 77.693176%, 89.76593%)" stop-opacity="1"/>
<stop offset="0.539062" stop-color="rgb(68.06488%, 77.426147%, 89.64386%)" stop-opacity="1"/>
<stop offset="0.546875" stop-color="rgb(67.678833%, 77.160645%, 89.520264%)" stop-opacity="1"/>
<stop offset="0.554687" stop-color="rgb(67.292786%, 76.893616%, 89.398193%)" stop-opacity="1"/>
<stop offset="0.5625" stop-color="rgb(66.906738%, 76.626587%, 89.276123%)" stop-opacity="1"/>
<stop offset="0.570313" stop-color="rgb(66.520691%, 76.361084%, 89.154053%)" stop-opacity="1"/>
<stop offset="0.578125" stop-color="rgb(66.134644%, 76.094055%, 89.030457%)" stop-opacity="1"/>
<stop offset="0.585938" stop-color="rgb(65.748596%, 75.827026%, 88.908386%)" stop-opacity="1"/>
<stop offset="0.59375" stop-color="rgb(65.362549%, 75.561523%, 88.786316%)" stop-opacity="1"/>
<stop offset="0.601562" stop-color="rgb(64.976501%, 75.294495%, 88.66272%)" stop-opacity="1"/>
<stop offset="0.609375" stop-color="rgb(64.590454%, 75.027466%, 88.540649%)" stop-opacity="1"/>
<stop offset="0.617188" stop-color="rgb(64.204407%, 74.761963%, 88.418579%)" stop-opacity="1"/>
<stop offset="0.625" stop-color="rgb(63.818359%, 74.494934%, 88.294983%)" stop-opacity="1"/>
<stop offset="0.632812" stop-color="rgb(63.432312%, 74.227905%, 88.172913%)" stop-opacity="1"/>
<stop offset="0.640625" stop-color="rgb(63.046265%, 73.960876%, 88.050842%)" stop-opacity="1"/>
<stop offset="0.648438" stop-color="rgb(62.660217%, 73.695374%, 87.927246%)" stop-opacity="1"/>
<stop offset="0.65625" stop-color="rgb(62.27417%, 73.428345%, 87.805176%)" stop-opacity="1"/>
<stop offset="0.664062" stop-color="rgb(61.888123%, 73.161316%, 87.683105%)" stop-opacity="1"/>
<stop offset="0.671875" stop-color="rgb(61.502075%, 72.895813%, 87.559509%)" stop-opacity="1"/>
<stop offset="0.679687" stop-color="rgb(61.116028%, 72.628784%, 87.437439%)" stop-opacity="1"/>
<stop offset="0.6875" stop-color="rgb(60.72998%, 72.361755%, 87.315369%)" stop-opacity="1"/>
<stop offset="0.695313" stop-color="rgb(60.343933%, 72.096252%, 87.193298%)" stop-opacity="1"/>
<stop offset="0.703125" stop-color="rgb(59.957886%, 71.829224%, 87.069702%)" stop-opacity="1"/>
<stop offset="0.710938" stop-color="rgb(59.571838%, 71.562195%, 86.947632%)" stop-opacity="1"/>
<stop offset="0.71875" stop-color="rgb(59.185791%, 71.296692%, 86.825562%)" stop-opacity="1"/>
<stop offset="0.726562" stop-color="rgb(58.799744%, 71.029663%, 86.701965%)" stop-opacity="1"/>
<stop offset="0.734375" stop-color="rgb(58.415222%, 70.762634%, 86.579895%)" stop-opacity="1"/>
<stop offset="0.742188" stop-color="rgb(58.029175%, 70.497131%, 86.457825%)" stop-opacity="1"/>
<stop offset="0.75" stop-color="rgb(57.643127%, 70.230103%, 86.334229%)" stop-opacity="1"/>
<stop offset="0.757812" stop-color="rgb(57.25708%, 69.963074%, 86.212158%)" stop-opacity="1"/>
<stop offset="0.765625" stop-color="rgb(56.871033%, 69.697571%, 86.090088%)" stop-opacity="1"/>
<stop offset="0.773438" stop-color="rgb(56.484985%, 69.430542%, 85.966492%)" stop-opacity="1"/>
<stop offset="0.78125" stop-color="rgb(56.098938%, 69.163513%, 85.844421%)" stop-opacity="1"/>
<stop offset="0.789062" stop-color="rgb(55.712891%, 68.89801%, 85.722351%)" stop-opacity="1"/>
<stop offset="0.796875" stop-color="rgb(55.326843%, 68.630981%, 85.598755%)" stop-opacity="1"/>
<stop offset="0.804687" stop-color="rgb(54.940796%, 68.363953%, 85.476685%)" stop-opacity="1"/>
<stop offset="0.8125" stop-color="rgb(54.554749%, 68.096924%, 85.354614%)" stop-opacity="1"/>
<stop offset="0.820313" stop-color="rgb(54.168701%, 67.831421%, 85.232544%)" stop-opacity="1"/>
<stop offset="0.828125" stop-color="rgb(53.782654%, 67.564392%, 85.108948%)" stop-opacity="1"/>
<stop offset="0.835938" stop-color="rgb(53.396606%, 67.297363%, 84.986877%)" stop-opacity="1"/>
<stop offset="0.84375" stop-color="rgb(53.010559%, 67.03186%, 84.864807%)" stop-opacity="1"/>
<stop offset="0.851562" stop-color="rgb(52.624512%, 66.764832%, 84.741211%)" stop-opacity="1"/>
<stop offset="0.859375" stop-color="rgb(52.238464%, 66.497803%, 84.619141%)" stop-opacity="1"/>
<stop offset="0.867188" stop-color="rgb(51.852417%, 66.2323%, 84.49707%)" stop-opacity="1"/>
<stop offset="0.875" stop-color="rgb(51.46637%, 65.965271%, 84.373474%)" stop-opacity="1"/>
<stop offset="0.882812" stop-color="rgb(51.080322%, 65.698242%, 84.251404%)" stop-opacity="1"/>
<stop offset="0.890625" stop-color="rgb(50.694275%, 65.432739%, 84.129333%)" stop-opacity="1"/>
<stop offset="0.898438" stop-color="rgb(50.308228%, 65.16571%, 84.005737%)" stop-opacity="1"/>
<stop offset="0.90625" stop-color="rgb(49.92218%, 64.898682%, 83.883667%)" stop-opacity="1"/>
<stop offset="0.914062" stop-color="rgb(49.536133%, 64.633179%, 83.761597%)" stop-opacity="1"/>
<stop offset="0.921875" stop-color="rgb(49.150085%, 64.36615%, 83.638%)" stop-opacity="1"/>
<stop offset="0.929687" stop-color="rgb(48.764038%, 64.099121%, 83.51593%)" stop-opacity="1"/>
<stop offset="0.9375" stop-color="rgb(48.377991%, 63.833618%, 83.39386%)" stop-opacity="1"/>
<stop offset="0.945313" stop-color="rgb(47.991943%, 63.566589%, 83.270264%)" stop-opacity="1"/>
<stop offset="0.953125" stop-color="rgb(47.605896%, 63.299561%, 83.148193%)" stop-opacity="1"/>
<stop offset="0.960938" stop-color="rgb(47.219849%, 63.032532%, 83.026123%)" stop-opacity="1"/>
<stop offset="0.96875" stop-color="rgb(46.833801%, 62.767029%, 82.904053%)" stop-opacity="1"/>
<stop offset="0.976562" stop-color="rgb(46.447754%, 62.5%, 82.780457%)" stop-opacity="1"/>
<stop offset="0.984375" stop-color="rgb(46.061707%, 62.232971%, 82.658386%)" stop-opacity="1"/>
<stop offset="0.992188" stop-color="rgb(45.675659%, 61.967468%, 82.536316%)" stop-opacity="1"/>
<stop offset="1" stop-color="rgb(45.289612%, 61.700439%, 82.41272%)" stop-opacity="1"/>
</linearGradient>
</defs>
<g clip-path="url(#clip-0)">
<path fill-rule="evenodd" fill="#233142" fill-opacity="1" d="M 1936.480469 0 C 3001.550781 0 3872.96875 871.421875 3872.96875 1936.480469 C 3872.96875 3001.550781 3001.550781 3872.96875 1936.480469 3872.96875 C 871.417969 3872.96875 0 3001.550781 0 1936.480469 C 0 871.421875 871.417969 0 1936.480469 0 "/>
</g>
<g clip-path="url(#clip-1)">
<g clip-path="url(#clip-2)">
<path fill-rule="nonzero" fill="url(#linear-pattern-0)" d="M 702.738281 697.179688 L 702.738281 3175.789062 L 3174.691406 3175.789062 L 3174.691406 697.179688 Z M 702.738281 697.179688 "/>
</g>
</g>
</svg>
