<svg version="1.0" xmlns="http://www.w3.org/2000/svg"
 width="80px" height="80px" viewBox="0 0 728.000000 651.000000"
 preserveAspectRatio="xMidYMid meet">

<g transform="translate(0.000000,651.000000) scale(0.100000,-0.100000)"
fill="#ed4159" stroke="none">
<path d="M1846 6104 c-411 -53 -829 -255 -1135 -549 -351 -337 -565 -748 -631
-1211 -73 -511 44 -1033 324 -1449 339 -502 871 -835 1456 -910 123 -16 441
-22 519 -9 l36 6 27 -79 c14 -43 58 -168 98 -278 91 -255 222 -622 249 -700
11 -33 39 -112 62 -175 22 -63 61 -174 86 -247 66 -192 111 -236 258 -250 65
-6 146 12 215 47 58 30 131 101 151 148 35 81 41 57 -151 612 -243 700 -370
1075 -370 1089 0 4 24 21 53 39 36 22 60 30 72 26 12 -5 16 -4 12 3 -4 6 6 17
21 24 59 29 187 117 261 179 91 76 119 96 132 93 4 -2 6 3 3 10 -2 7 23 39 56
72 34 32 73 74 88 94 26 34 71 88 100 117 7 8 10 14 5 14 -4 0 -3 4 3 8 13 8
73 104 121 193 17 33 33 56 35 52 3 -4 3 -2 2 5 -2 7 9 41 25 75 184 392 242
933 142 1334 -10 43 -22 96 -26 118 -15 91 -153 400 -245 550 -179 292 -496
583 -806 738 -318 158 -615 228 -963 226 -97 -1 -225 -8 -285 -15z m604 -549
c424 -83 792 -325 1024 -674 253 -381 327 -831 210 -1266 -140 -516 -539 -926
-1064 -1090 -60 -19 -154 -41 -207 -50 -118 -19 -401 -22 -493 -6 -250 46
-449 121 -628 237 -458 298 -722 778 -722 1314 0 261 49 469 167 701 107 212
220 347 451 541 83 69 324 196 448 236 93 30 221 61 299 71 105 14 414 6 515
-14z"/>
<path d="M1915 5003 c-243 -34 -474 -243 -515 -467 -15 -79 -9 -187 15 -263
18 -60 44 -79 125 -92 209 -33 620 176 815 414 40 48 78 155 69 191 -4 14 -38
52 -77 86 -129 111 -269 153 -432 131z m256 -145 c100 -51 143 -91 134 -126
-43 -174 -561 -482 -749 -446 -32 5 -36 10 -45 55 -45 208 59 406 265 505 93
45 133 53 235 51 76 -2 93 -6 160 -39z"/>
<path d="M2885 4814 c-163 -104 -220 -148 -223 -175 -3 -31 7 -46 38 -54 20
-5 54 13 178 95 135 89 152 103 152 128 -1 72 -37 74 -145 6z"/>
<path d="M2943 4634 c-95 -72 -123 -99 -123 -120 0 -18 36 -54 54 -54 8 0 51
27 96 61 73 53 84 59 98 46 10 -8 84 -71 165 -140 97 -83 156 -127 171 -127
26 0 56 28 56 53 0 14 -73 84 -235 223 -125 108 -148 124 -171 124 -13 0 -60
-28 -111 -66z"/>
<path d="M2375 4546 c-55 -57 -140 -133 -190 -170 -142 -106 -370 -210 -554
-252 -57 -13 -108 -29 -113 -36 -13 -19 -1 -209 23 -345 67 -393 249 -632 518
-678 122 -22 233 -4 414 67 179 69 353 182 483 313 142 143 194 254 194 414 0
168 -71 315 -236 490 -75 80 -251 219 -345 274 -72 42 -82 38 -194 -77z m270
-106 c286 -211 428 -443 395 -645 -16 -99 -63 -179 -159 -275 -100 -100 -199
-168 -366 -250 -227 -113 -421 -134 -561 -62 -122 63 -232 236 -285 452 -29
114 -56 318 -46 342 2 8 33 19 67 26 65 14 256 84 330 122 23 12 43 20 44 18
7 -10 88 -151 112 -193 15 -27 63 -111 107 -185 44 -74 106 -180 138 -235 57
-99 58 -100 96 -100 32 0 39 4 47 27 8 23 0 43 -68 158 -43 73 -86 146 -96
164 -10 17 -68 118 -130 225 -61 106 -108 196 -103 200 4 4 53 40 107 81 55
41 131 107 170 146 82 82 67 84 201 -16z"/>
<path d="M973 4158 c-6 -7 -17 -26 -25 -43 -8 -16 -39 -74 -68 -128 -45 -85
-51 -102 -42 -122 15 -32 57 -43 81 -21 10 9 40 58 66 109 26 50 50 95 54 99
3 3 83 -7 176 -23 199 -33 218 -34 239 -13 20 19 21 58 2 73 -13 11 -402 81
-450 81 -13 0 -28 -6 -33 -12z"/>
<path d="M1256 3862 c-83 -42 -154 -84 -159 -93 -16 -26 0 -68 29 -75 19 -5
60 11 177 71 84 43 158 82 165 87 15 13 16 60 0 76 -23 23 -64 10 -212 -66z"/>
<path d="M1321 3692 c-84 -35 -116 -54 -122 -70 -6 -15 6 -96 36 -244 59 -291
54 -278 106 -278 56 0 57 13 10 247 -23 118 -41 217 -39 218 2 2 42 21 88 43
105 48 120 63 99 100 -22 40 -51 37 -178 -16z"/>
<path d="M5216 5840 c-36 -5 -40 -9 -56 -55 -10 -27 -39 -106 -63 -175 -25
-69 -95 -264 -155 -435 -61 -170 -169 -474 -240 -675 -72 -201 -155 -435 -185
-520 -31 -85 -67 -186 -81 -225 -111 -309 -305 -855 -388 -1090 -38 -110 -80
-226 -93 -257 l-24 -58 383 0 382 0 63 198 c136 423 164 507 175 514 6 4 311
8 678 8 l666 0 119 -357 119 -358 378 -3 c357 -2 378 -1 373 15 -3 10 -33 95
-67 188 -34 94 -75 206 -90 250 -16 44 -45 125 -65 180 -20 55 -52 143 -70
195 -18 52 -56 158 -85 235 -28 77 -67 183 -85 235 -18 52 -50 140 -70 195
-32 87 -91 250 -256 710 -22 61 -55 153 -74 205 -18 52 -77 214 -130 360 -53
146 -122 339 -155 430 -71 203 -101 283 -107 290 -6 7 -747 7 -797 0z m402
-752 c15 -50 77 -241 301 -924 89 -270 161 -494 161 -498 0 -3 -216 -6 -480
-6 -264 0 -480 3 -480 7 0 4 61 194 136 423 247 753 313 955 325 998 7 23 15
42 18 42 3 0 12 -19 19 -42z"/>
</g>
</svg>